<svg width="66" height="43" viewBox="0 0 66 43" fill="none" xmlns="http://www.w3.org/2000/svg">
<path d="M44.35 0H21.07C9.43 0 0 9.43001 0 21.07C0 32.71 9.43 42.14 21.07 42.14H44.35C55.99 42.14 65.42 32.71 65.42 21.07C65.42 9.43001 55.99 0 44.35 0ZM51.27 21.67C50.91 22.26 50.76 22.95 50.42 23.55C50.37 23.63 49.89 24.27 50.31 24.16C50.33 24.16 50.36 24.16 50.38 24.16C51.23 24.41 49.96 24.77 49.83 24.86C49.27 25.22 48.79 25.8 48.25 26.22C48.25 26.22 48.7 26.38 48.54 26.37C48.56 26.41 48.93 26.59 48.97 26.61C48.78 27.18 45.08 28.05 47.37 28.52C47.23 28.62 47.04 28.65 46.93 28.79C45.78 28.88 44.95 28.96 43.88 28.38C43.71 28.29 43.13 27.91 43.42 28.4C43.62 28.73 44.42 28.73 44.51 29.08C44.05 28.96 43.48 29.23 42.94 29.01C42.39 28.78 42.07 28.3 41.65 27.91C41.6 27.91 41.55 27.91 41.5 27.91C41.22 29.06 40.05 30.16 39.07 30.74C38.56 31.04 37.76 31.24 37.57 31.86C37.49 32.11 37.52 32.38 37.64 32.61C37.77 32.85 38 32.91 38.09 33.12C38.62 33.24 39 33.94 39.07 34.43C39.13 34.86 38.93 35.11 38.84 35.52C38.27 35.56 37.35 37.59 37.57 38.05C37.72 38.36 38.19 38.3 38.26 38.52C38.36 38.83 37.66 38.7 37.56 38.7C37.5 38.91 37.85 39.48 37.24 39.14C37.23 39.07 37.18 39.03 37.09 39C37.09 39.11 37.09 39.2 37.09 39.29C37.1 39.58 36.97 39.71 36.71 39.33C36.5 39.57 36.74 41.02 36.24 40.98C35.95 41.27 35.07 41.51 34.66 41.42C34.67 41.35 34.62 41.35 34.57 41.35C34.4 41.35 34.24 41.35 34.07 41.35C34 41.22 33.87 41.2 33.7 41.28C33.7 41.11 33.7 40.96 33.7 40.8C33.36 40.52 33.99 40.17 34.13 40.03C34.67 40.12 35.68 39.98 36.19 39.76C35.51 39.71 34.89 39.73 34.23 39.55C34.11 39.52 33.56 39.15 33.56 39.15C33.66 38.87 33.73 38.58 34 38.42C34.2 38.32 34.3 38.09 34.51 38.01C34.58 37.77 34.85 37.69 34.95 37.47C35.03 37.03 35.78 36.55 35.98 36.09C36.26 35.44 36.09 34.8 35.69 34.25C35.3 33.71 34.74 33.26 34.22 32.85C33.89 32.59 32.9 31.84 32.9 31.38C32.78 31.38 32.74 31.26 32.63 31.26C32.5 31.26 32.51 31.36 32.38 31.38C31.93 32.23 32.33 32.88 32.7 33.64C33 34.26 32.76 34.72 32.31 35.16C31.79 35.65 30.8 35.89 30.54 36.63C30.41 37 30.71 37.17 30.69 37.47C30.66 37.89 30.67 37.6 30.26 37.62C30.26 37.6 30.26 37.57 30.26 37.55C30.26 37.5 30.24 37.47 30.19 37.48C30.14 37.49 30.1 37.46 30.08 37.41C30.07 37.44 30.06 37.47 30.04 37.5C30.17 37.55 30.04 37.73 30.19 37.77C30.18 37.97 30.32 38.15 30.26 38.36C30.24 38.36 30.21 38.36 30.19 38.36C30.08 38.38 30 38.3 29.91 38.26C29.85 38.23 29.81 38.22 29.75 38.22C29.73 38.13 29.56 38.01 29.47 38.09C29.49 38.07 29.53 38.39 29.53 38.37C29.61 38.6 29.8 38.75 29.97 38.92C29.77 39.06 29.57 39.1 29.39 38.89C29.38 38.87 29.38 38.83 29.37 38.83C29.33 38.82 29.32 38.85 29.32 38.89C28.95 38.96 29.21 39.09 29.17 39.35C29.07 39.93 28.83 40.09 28.48 40.51C28.34 40.48 28.22 40.62 28.08 40.58C27.66 40.78 26.93 40.73 26.47 40.73C26.52 40.51 26.38 40.32 26.39 40.1C25.79 39.62 27.58 39.2 27.85 39.26C28 39.17 28.63 39.17 28.66 38.97C27.8 38.97 27 39.15 26.17 38.82C26.17 37.82 27.44 36.8 28.05 36.12C28.74 35.35 30.08 34.58 29.6 33.41C29.21 32.47 28.22 31.94 28.09 30.88C28.03 30.4 28.19 29.82 28.4 29.38C28.57 29.02 29.18 28.41 29.18 28.02C29.04 27.93 27.75 27.25 27.79 27.04C26.74 26.44 25.86 25.41 25.2 24.4C24.86 23.89 24.68 22.99 24.27 22.55C24.07 22.34 23.63 22.35 23.33 22.27C22.05 21.95 21.56 20.32 20.32 19.88C19.79 19.69 19.63 20.01 19.51 20.58C19.38 21.16 19.83 21.65 19.72 22.22C19.76 22.26 19.89 22.67 19.87 22.75C19.82 22.87 19.64 22.8 19.65 22.78C19.6 22.88 19.51 22.79 19.51 23.11C19.51 23.28 19.51 23.44 19.51 23.61C19.45 23.52 19.3 23.6 19.29 23.48C19.28 23.48 19.26 23.48 19.26 23.48C19.23 23.33 19.13 23.31 19 23.33C18.98 23.46 19.1 23.55 19.08 23.69C19.06 23.81 18.99 23.77 18.93 23.77C18.74 23.8 18.49 23.4 18.49 23.92C18.49 23.97 18.51 24 18.56 23.99C19.02 23.99 19.29 24.79 19.3 25.12C19.31 25.73 18.91 26.2 18.64 26.7C18.39 27 18.16 27.32 17.85 27.59C17.58 27.17 17.28 26.76 17.02 26.33C16.83 25.85 16.34 25.6 16.23 25.02C16.2 24.86 16.16 24.02 16.28 23.93C16.11 23.1 16.77 22.37 16.87 21.61C17.29 21.45 17.61 20.06 17.74 19.69C17.96 19.06 18.04 18.33 18.28 17.72C18.43 17.35 18.76 17.03 19.13 16.9C19.84 16.66 20.2 17.18 20.83 17.3C20.94 16.98 19.91 15.73 19.73 15.42C19.39 14.86 19.02 14.03 18.23 14.29C17.71 14.46 17.27 15.09 17.1 15.59C16.96 16.01 17.15 16.45 17.09 16.78C17.09 16.74 17.12 17.07 17.13 17.06C17.05 17.12 16.98 17.1 16.94 17C16.51 17.03 17.07 17.78 16.91 17.88C16.69 18.01 16.62 17.54 16.49 17.59C16.26 17.68 16.56 17.96 16.56 18.06C16.55 18.39 16.7 18.2 16.44 18.3C16.33 18.34 15.96 17.99 15.91 18.38C15.88 18.59 16.48 18.93 16.55 19.14C16.77 19.81 15.94 20.91 15.33 21.12C15.28 21.26 15.12 21.29 15.05 21.39C14.97 21.51 14.84 21.54 14.75 21.63C14.75 21.64 14.75 21.65 14.75 21.67C14.6 21.66 14.56 21.94 14.37 21.8C14.24 21.71 14.36 21.52 14.24 21.42C14.24 21.12 14.11 20.84 14.17 20.53C14.1 20.54 14.1 20.49 14.1 20.44C14.1 20.3 14.1 20.16 14.1 20.02C13.81 20.07 13.81 18.27 13.95 18.02C13.8 17.86 14.06 16.8 14.11 16.62C14.23 16.12 14.49 15.7 14.83 15.32C15.71 14.36 16.52 13.28 17.48 12.39C18.51 11.44 19.34 12.05 20.19 12.86C20.63 13.27 21.03 13.7 21.52 14.06C21.68 14.17 22.51 14.81 22.75 14.72C23.97 13.18 25.9 12.56 27.04 10.87C27.34 10.42 28.27 9.33002 27.33 9.30002C26.51 9.27002 25.65 10.35 24.79 9.90002C23.62 9.29002 25.46 9.06 25.52 8.72C25.54 8.63 24.11 9.12001 23.83 8.89001C22.96 8.17001 23.88 7.07 24.51 6.66C25.08 6.29 26.46 5.73002 26.55 4.96002C26.36 4.96002 25.49 5.03002 25.41 4.96002C25.04 4.64002 25.61 4.33002 25.83 4.11002C25.62 3.97002 25.24 3.83001 25.08 3.64001C24.96 3.66001 24.91 3.61002 24.93 3.49002C24.97 3.33002 25.1 3.34 25.22 3.34C25.47 3.36 26.38 3.51002 26.54 3.30002C26.44 3.22002 26.37 3.10002 26.25 3.05002C26.12 3.05002 25.33 2.81002 25.3 2.68002C25.57 2.54002 25.84 2.43002 26.15 2.46002C26.38 2.48002 26.61 2.46002 26.84 2.46002C26.94 2.46002 27.04 2.46002 27.13 2.46002C27.14 2.48002 27.15 2.50002 27.15 2.52002C27.26 2.46002 27.19 2.24001 27.13 2.17001C27.22 1.88001 27.17 1.98001 27.42 2.07001C27.47 2.18001 27.54 2.29002 27.61 2.40002C27.76 2.46002 27.91 2.48 28.07 2.47C28.59 2.55 29.4 2.26 29.71 2.91C29.71 2.93 29.71 2.96001 29.71 2.98001C29.77 2.97001 29.85 3.02 29.86 2.91C29.91 2.91 29.94 2.89 29.93 2.84C30.33 2.82 30.72 2.71002 31.1 2.58002C31.19 2.55002 31.27 2.48003 31.32 2.62003C31.46 2.65003 31.37 2.77 31.39 2.84C31.43 2.83 31.46 2.86002 31.46 2.90002C31.47 2.95002 31.47 3.00002 31.53 2.99002C31.71 2.93002 31.84 2.77002 32.04 2.77002C32.03 2.72002 32.06 2.70001 32.1 2.70001C32.72 2.68001 33.33 2.58 33.95 2.63C34.43 2.7 34.82 2.01002 34.84 2.80002C34.85 3.15002 34.23 3.66 34.73 3.72C35.17 3.77 35.38 2.93001 35.71 3.14001C36.02 3.34001 35.68 3.94002 35.72 4.18002C35.8 4.21002 35.86 4.28001 35.97 4.26001C36.07 4.24001 36.14 4.30002 36.16 4.40002C36.24 5.02002 38.8 4.54002 37.75 5.33002C37.36 5.63002 37.06 5.43001 37.39 5.85001C37.78 6.34001 38.75 5.94 39.23 6.19C39.13 6.4 38.8 6.73001 38.58 6.82001C38.44 7.12001 37.64 6.91001 37.63 7.04001C37.89 7.81001 39.23 7.47001 39.68 7.95001C39.39 8.30001 38.9 8.35002 38.58 8.65002C38.6 8.87002 37.98 8.58002 37.99 8.80002C38 8.91002 38.08 8.86003 38.14 8.87003C38.3 8.99003 39.61 9.16 39.61 9.16C39.27 9.53 38.87 9.71002 38.44 9.93002C38.81 10.36 39.97 10.48 40.49 10.48C40.55 10.46 40.59 10.48 40.62 10.53C40.58 10.55 40.54 10.56 40.49 10.55C40.31 10.87 39.94 11.04 39.62 11.16C39.48 11.22 38.78 11.3 38.74 11.45C38.69 11.68 40.51 12.33 40.78 12.4C40.14 12.77 39.62 12.89 38.88 12.89C38.8 12.95 38.86 13.09 38.73 13.11C38.84 13.39 40.41 13.49 40.27 14.01C40.23 14.14 38.69 14.36 38.48 14.39C38.33 14.41 37.96 14.3 37.86 14.36C37.86 14.45 37.79 14.44 37.74 14.43C37.62 14.42 37.52 14.43 37.42 14.5C37.76 15.39 39.01 15.17 39.61 15.78C39.49 16.02 38.09 16.11 37.76 16.16C37.24 16.24 36.78 16.18 36.27 16.11C36.07 16.37 37.1 16.54 37.1 16.54C37.28 16.59 38.91 17.44 38.22 17.44C37.94 17.44 35.87 17.62 35.87 17.37C35.8 17.19 35.53 17.28 35.67 17.54C35.79 17.75 36.48 17.96 36.7 17.96C37 18.25 37.42 18.2 37.7 18.59C37.54 18.73 36.64 18.82 36.46 18.77C35.95 18.77 35.43 18.77 34.92 18.77C34.79 18.78 34.68 18.71 34.57 18.66C34.49 18.63 34.41 18.63 34.33 18.62C34.48 19.44 35.77 20.1 36.4 20.5C37.34 21.09 38.39 21.56 39.3 22.21C39.87 22.62 40.41 23.24 40.8 23.84C41.07 24.26 41.75 25.31 41.6 25.82C41.6 25.89 41.6 25.96 41.6 26.03C41.6 26.08 41.61 26.12 41.67 26.12C41.93 26.12 42.18 26.1 42.44 26.13C42.71 26.15 42.95 26.04 43.21 26.05C44.1 26.03 44.64 25.26 44.88 24.52C44.97 24.24 45.38 23.12 45.27 22.82C45.27 22.67 45.27 22.53 45.27 22.38C45.54 22.32 45.54 20.82 45.27 20.77C45.27 20.6 45.27 20.43 45.27 20.26C44.92 19.59 44.73 18.77 44.39 18.07C44.15 17.58 43.77 16.88 44.06 16.37C44.21 16.45 44.26 16.69 44.49 16.66C44.6 16.79 44.77 16.81 44.91 16.88C44.98 16.86 45.07 16.92 45.12 16.85C45.05 16.74 44.97 16.65 44.98 16.52C44.96 16.52 44.93 16.52 44.91 16.52C44.96 16.09 44.5 15.52 44.47 15.05C44.1 14.54 45.11 12.29 45.77 12.56C45.9 12.61 45.48 14.63 46.04 14.59C46.16 14.58 46.45 13.68 46.52 13.57C46.73 13.23 47.18 12.63 47.6 12.53C48.07 12.43 47.95 12.46 47.87 12.9C47.8 13.25 47.46 14.08 47.69 14.41C47.56 14.57 47.83 14.88 47.78 15.05C47.84 15.2 47.91 15.35 47.93 15.51C47.93 15.54 47.96 15.57 48 15.56C48.01 15.52 48 15.47 48.07 15.52C48.09 15.54 48.12 15.55 48.15 15.56C48.31 15.54 48.15 15.34 48.29 15.31C48.24 15.01 48.93 14.45 49.13 14.31C49.37 14.15 50.06 14.09 50.13 14.01C49.57 14.61 49.47 14.99 49.47 15.34C49.47 15.58 49.47 15.83 49.47 16.07C49.47 16.6 49.58 17.09 49.64 17.62C49.6 17.66 50.6 16.51 50.57 16.95C50.47 17.23 50.2 18.63 50.64 18.71C50.65 19.41 50.85 20.03 50.72 20.73C50.6 21.36 50.28 21.68 51.01 21.65C51.05 21.56 51.39 21.51 51.47 21.46C51.39 21.55 51.28 21.58 51.27 21.67Z" fill="black"/>
<path d="M36.77 17.4199C37.03 17.3999 37.28 17.2899 37.54 17.3399C37.56 17.2499 35.9 17.1999 35.93 17.3399C36.21 17.3199 36.48 17.4499 36.77 17.4199Z" fill="black"/>
</svg>
