<svg width="82" height="53" viewBox="0 0 82 53" fill="none" xmlns="http://www.w3.org/2000/svg">
<path d="M55.59 0H26.41C11.8199 0 0 11.8199 0 26.41C0 41 11.8199 52.82 26.41 52.82H55.59C70.1801 52.82 82 41 82 26.41C82 11.8199 70.1801 0 55.59 0ZM64.2638 27.162C63.8126 27.9016 63.6246 28.7665 63.1984 29.5185C63.1357 29.6188 62.5341 30.421 63.0606 30.2831C63.0856 30.2831 63.1232 30.2831 63.1483 30.2831C64.2137 30.5965 62.6218 31.0477 62.4589 31.1605C61.757 31.6118 61.1553 32.3387 60.4784 32.8652C60.4784 32.8652 61.0425 33.0658 60.842 33.0532C60.867 33.1034 61.3308 33.329 61.3809 33.354C61.1428 34.0685 56.5051 35.159 59.3754 35.7481C59.2 35.8735 58.9618 35.9111 58.8239 36.0865C57.3825 36.1993 56.3421 36.2996 55.0009 35.5726C54.7878 35.4598 54.0608 34.9835 54.4243 35.5977C54.675 36.0113 55.6778 36.0113 55.7906 36.45C55.214 36.2996 54.4995 36.638 53.8227 36.3623C53.1333 36.074 52.7322 35.4723 52.2058 34.9835C52.1431 34.9835 52.0804 34.9835 52.0177 34.9835C51.6668 36.425 50.2003 37.8038 48.9719 38.5308C48.3326 38.9068 47.3299 39.1575 47.0917 39.9346C46.9914 40.248 47.0291 40.5864 47.1795 40.8747C47.3424 41.1755 47.6307 41.2507 47.7435 41.5139C48.4078 41.6644 48.8841 42.5418 48.9719 43.1559C49.0471 43.6949 48.7964 44.0083 48.6836 44.5222C47.9691 44.5723 46.816 47.1168 47.0917 47.6934C47.2797 48.082 47.8689 48.0068 47.9566 48.2825C48.0819 48.6711 47.2045 48.5081 47.0792 48.5081C47.004 48.7713 47.4427 49.4858 46.6781 49.0596C46.6656 48.9719 46.6029 48.9217 46.4901 48.8841C46.4901 49.022 46.4901 49.1348 46.4901 49.2476C46.5026 49.6111 46.3397 49.7741 46.0138 49.2978C45.7505 49.5986 46.0514 51.4161 45.4246 51.366C45.0611 51.7295 43.9581 52.0303 43.4442 51.9175C43.4567 51.8297 43.3941 51.8297 43.3314 51.8297C43.1183 51.8297 42.9178 51.8297 42.7047 51.8297C42.6169 51.6668 42.454 51.6417 42.2409 51.742C42.2409 51.5289 42.2409 51.3409 42.2409 51.1404C41.8147 50.7894 42.6044 50.3507 42.7799 50.1752C43.4567 50.288 44.7227 50.1125 45.362 49.8368C44.5096 49.7741 43.7325 49.7992 42.9052 49.5736C42.7548 49.5359 42.0654 49.0722 42.0654 49.0722C42.1908 48.7212 42.2785 48.3577 42.6169 48.1572C42.8676 48.0318 42.993 47.7435 43.2562 47.6432C43.3439 47.3424 43.6824 47.2421 43.8077 46.9664C43.908 46.4149 44.8481 45.8132 45.0987 45.2366C45.4497 44.4219 45.2366 43.6197 44.7353 42.9303C44.2464 42.2534 43.5445 41.6894 42.8927 41.1755C42.4791 40.8496 41.2382 39.9095 41.2382 39.3329C41.0878 39.3329 41.0376 39.1825 40.8997 39.1825C40.7368 39.1825 40.7493 39.3079 40.5864 39.3329C40.0223 40.3984 40.5237 41.2131 40.9875 42.1657C41.3635 42.9429 41.0627 43.5194 40.4986 44.0709C39.8468 44.6851 38.6059 44.9859 38.28 45.9135C38.1171 46.3773 38.4931 46.5903 38.4681 46.9664C38.4304 47.4928 38.443 47.1294 37.9291 47.1544C37.9291 47.1294 37.9291 47.0917 37.9291 47.0667C37.9291 47.004 37.904 46.9664 37.8413 46.9789C37.7787 46.9915 37.7285 46.9538 37.7035 46.8912C37.6909 46.9288 37.6784 46.9664 37.6533 47.004C37.8163 47.0667 37.6533 47.2923 37.8413 47.3424C37.8288 47.5931 38.0043 47.8187 37.9291 48.082C37.904 48.082 37.8664 48.082 37.8413 48.082C37.7035 48.107 37.6032 48.0067 37.4904 47.9566C37.4152 47.919 37.365 47.9065 37.2898 47.9065C37.2648 47.7936 37.0517 47.6432 36.9389 47.7435C36.9639 47.7184 37.0141 48.1196 37.0141 48.0945C37.1143 48.3828 37.3525 48.5708 37.5656 48.7839C37.3149 48.9594 37.0642 49.0095 36.8386 48.7463C36.8261 48.7212 36.826 48.6711 36.8135 48.6711C36.7634 48.6585 36.7508 48.6961 36.7508 48.7463C36.2871 48.834 36.613 48.997 36.5628 49.3228C36.4375 50.0498 36.1367 50.2504 35.698 50.7768C35.5225 50.7392 35.3721 50.9147 35.1966 50.8646C34.6701 51.1153 33.7551 51.0526 33.1785 51.0526C33.2412 50.7768 33.0657 50.5387 33.0783 50.2629C32.3262 49.6613 34.5699 49.1348 34.9083 49.21C35.0963 49.0972 35.886 49.0972 35.9236 48.8465C34.8456 48.8465 33.8429 49.0722 32.8025 48.6585C32.8025 47.4051 34.3944 46.1266 35.159 45.2743C36.0238 44.3091 37.7035 43.3439 37.1018 41.8774C36.613 40.6992 35.3721 40.0349 35.2091 38.7062C35.1339 38.1046 35.3345 37.3776 35.5977 36.8261C35.8108 36.3748 36.5754 35.6102 36.5754 35.1214C36.3999 35.0086 34.7829 34.1562 34.8331 33.893C33.517 33.1409 32.4139 31.8499 31.5867 30.584C31.1605 29.9447 30.9349 28.8166 30.421 28.2651C30.1703 28.0019 29.6188 28.0144 29.2427 27.9141C27.6383 27.513 27.0242 25.4699 25.4699 24.9184C24.8056 24.6802 24.605 25.0813 24.4546 25.7958C24.2917 26.5228 24.8557 27.137 24.7178 27.8514C24.768 27.9016 24.9309 28.4155 24.9058 28.5157C24.8432 28.6662 24.6176 28.5784 24.6301 28.5533C24.5674 28.6787 24.4546 28.5659 24.4546 28.967C24.4546 29.1801 24.4546 29.3806 24.4546 29.5937C24.3794 29.4809 24.1914 29.5812 24.1788 29.4308C24.1663 29.4308 24.1412 29.4308 24.1412 29.4308C24.1036 29.2428 23.9783 29.2177 23.8154 29.2428C23.7903 29.4057 23.9407 29.5185 23.9156 29.694C23.8906 29.8444 23.8028 29.7943 23.7276 29.7943C23.4895 29.8319 23.1761 29.3305 23.1761 29.9823C23.1761 30.045 23.2012 30.0826 23.2638 30.07C23.8404 30.07 24.1788 31.0728 24.1914 31.4864C24.2039 32.251 23.7025 32.8401 23.3641 33.4668C23.0508 33.8429 22.7625 34.244 22.3739 34.5824C22.0355 34.0559 21.6594 33.5421 21.3335 33.0031C21.0954 32.4014 20.4812 32.0881 20.3433 31.3611C20.3057 31.1605 20.2556 30.1076 20.406 29.9948C20.1929 28.9545 21.0202 28.0395 21.1455 27.0868C21.672 26.8863 22.0731 25.144 22.236 24.6802C22.5118 23.8906 22.612 22.9755 22.9129 22.2109C23.1009 21.7472 23.5145 21.3461 23.9783 21.1832C24.8682 20.8823 25.3195 21.5341 26.1091 21.6845C26.247 21.2834 24.956 19.7166 24.7304 19.3281C24.3042 18.6261 23.8404 17.5858 22.8502 17.9117C22.1984 18.1247 21.6469 18.9144 21.4338 19.5411C21.2583 20.0676 21.4965 20.6191 21.4213 21.0327C21.4213 20.9826 21.4589 21.3962 21.4714 21.3837C21.3711 21.4589 21.2834 21.4338 21.2333 21.3085C20.6943 21.3461 21.3962 22.2862 21.1957 22.4115C20.9199 22.5745 20.8322 21.9853 20.6692 22.048C20.3809 22.1608 20.757 22.5118 20.757 22.6371C20.7444 23.0507 20.9324 22.8126 20.6065 22.938C20.4687 22.9881 20.0049 22.5494 19.9422 23.0382C19.9046 23.3014 20.6567 23.7276 20.7444 23.9908C21.0202 24.8307 19.9798 26.2095 19.2152 26.4727C19.1525 26.6482 18.952 26.6857 18.8643 26.8111C18.764 26.9615 18.601 26.9991 18.4882 27.1119C18.4882 27.1244 18.4882 27.137 18.4882 27.162C18.3002 27.1495 18.2501 27.5005 18.0119 27.325C17.849 27.2122 17.9994 26.974 17.849 26.8487C17.849 26.4727 17.686 26.1217 17.7612 25.7331C17.6735 25.7456 17.6735 25.683 17.6735 25.6203C17.6735 25.4448 17.6735 25.2694 17.6735 25.0939C17.31 25.1566 17.31 22.9004 17.4855 22.587C17.2975 22.3865 17.6234 21.0578 17.686 20.8322C17.8364 20.2055 18.1623 19.679 18.5885 19.2027C19.6915 17.9994 20.7068 16.6457 21.9101 15.5301C23.2012 14.3394 24.2415 15.104 25.3069 16.1193C25.8585 16.6332 26.3598 17.1721 26.974 17.6234C27.1746 17.7612 28.2149 18.5634 28.5157 18.4506C30.0449 16.5203 32.4641 15.7432 33.893 13.6249C34.269 13.0609 35.4347 11.6946 34.2565 11.657C33.2287 11.6194 32.1507 12.9731 31.0728 12.4091C29.6062 11.6445 31.9126 11.3562 31.9878 10.93C32.0128 10.8172 30.2204 11.4314 29.8695 11.1431C28.779 10.2406 29.9321 8.86182 30.7218 8.34791C31.4363 7.88414 33.166 7.18224 33.2788 6.21709C33.0407 6.21709 31.9502 6.30483 31.8499 6.21709C31.3861 5.81599 32.1006 5.42741 32.3763 5.15166C32.1131 4.97617 31.6368 4.80069 31.4363 4.56254C31.2858 4.58761 31.2232 4.52494 31.2482 4.37453C31.2984 4.17398 31.4613 4.18648 31.6117 4.18648C31.9251 4.21155 33.0657 4.3996 33.2663 4.13637C33.1409 4.0361 33.0532 3.88569 32.9028 3.82301C32.7398 3.82301 31.7496 3.52219 31.712 3.35925C32.0504 3.18377 32.3889 3.04589 32.7774 3.08349C33.0657 3.10856 33.354 3.08349 33.6423 3.08349C33.7677 3.08349 33.893 3.08349 34.0058 3.08349C34.0183 3.10856 34.0309 3.13362 34.0309 3.15869C34.1688 3.08349 34.081 2.80772 34.0058 2.71998C34.1186 2.35648 34.056 2.48182 34.3693 2.59463C34.432 2.73251 34.5197 2.87041 34.6075 3.00829C34.7955 3.08349 34.9835 3.10853 35.184 3.096C35.8358 3.19627 36.8511 2.83278 37.2397 3.64751C37.2397 3.67258 37.2397 3.71019 37.2397 3.73526C37.3149 3.72273 37.4152 3.78539 37.4277 3.64751C37.4904 3.64751 37.528 3.62244 37.5154 3.55976C38.0168 3.53469 38.5057 3.39684 38.982 3.2339C39.0948 3.19629 39.1951 3.10856 39.2577 3.28404C39.4332 3.32165 39.3204 3.47202 39.3455 3.55976C39.3956 3.54723 39.4332 3.58487 39.4332 3.635C39.4457 3.69768 39.4457 3.76034 39.5209 3.74781C39.7466 3.6726 39.9095 3.47205 40.1602 3.47205C40.1477 3.40938 40.1853 3.3843 40.2354 3.3843C41.0125 3.35923 41.7771 3.23388 42.5543 3.29655C43.1559 3.38429 43.6448 2.51944 43.6698 3.50965C43.6824 3.94836 42.9052 4.58759 43.532 4.6628C44.0835 4.72547 44.3467 3.6726 44.7603 3.93582C45.1489 4.18651 44.7227 4.93858 44.7729 5.23941C44.8731 5.27701 44.9483 5.36473 45.0862 5.33966C45.2116 5.3146 45.2993 5.38982 45.3244 5.51516C45.4246 6.2923 48.6334 5.69064 47.3173 6.68085C46.8285 7.05689 46.4525 6.80618 46.8661 7.33263C47.3549 7.94681 48.5708 7.44543 49.1724 7.75879C49.0471 8.02202 48.6334 8.43566 48.3577 8.54847C48.1822 8.9245 47.1795 8.66128 47.1669 8.82422C47.4928 9.78937 49.1724 9.36321 49.7365 9.96486C49.373 10.4036 48.7588 10.4662 48.3577 10.8423C48.3828 11.118 47.6056 10.7545 47.6182 11.0303C47.6307 11.1682 47.731 11.1055 47.8062 11.118C48.0067 11.2685 49.6487 11.4815 49.6487 11.4815C49.2226 11.9453 48.7212 12.1709 48.1822 12.4467C48.646 12.9857 50.1 13.1361 50.7518 13.1361C50.827 13.111 50.8771 13.136 50.9147 13.1987C50.8646 13.2238 50.8144 13.2363 50.7518 13.2238C50.5261 13.6249 50.0624 13.838 49.6613 13.9884C49.4858 14.0636 48.6084 14.1639 48.5582 14.3519C48.4956 14.6402 50.7768 15.4549 51.1153 15.5427C50.3131 16.0065 49.6613 16.1569 48.7337 16.1569C48.6335 16.2321 48.7087 16.4075 48.5457 16.4326C48.6836 16.7836 50.6515 16.9089 50.476 17.5607C50.4259 17.7236 48.4956 17.9994 48.2324 18.037C48.0443 18.0621 47.5806 17.9242 47.4552 17.9994C47.4552 18.1122 47.3675 18.0997 47.3048 18.0872C47.1544 18.0746 47.029 18.0871 46.9037 18.1749C47.3299 19.2904 48.8967 19.0147 49.6487 19.7793C49.4983 20.0801 47.7435 20.1929 47.3299 20.2556C46.6781 20.3559 46.1015 20.2807 45.4622 20.1929C45.2116 20.5188 46.5026 20.7319 46.5026 20.7319C46.7282 20.7946 48.7713 21.86 47.9065 21.86C47.5555 21.86 44.9609 22.0856 44.9609 21.7723C44.8731 21.5467 44.5347 21.6594 44.7102 21.9853C44.8606 22.2486 45.7255 22.5118 46.0012 22.5118C46.3773 22.8753 46.9037 22.8126 47.2547 23.3014C47.0541 23.4769 45.926 23.5898 45.7004 23.5271C45.0612 23.5271 44.4094 23.5271 43.7701 23.5271C43.6072 23.5396 43.4693 23.4519 43.3314 23.3892C43.2311 23.3516 43.1308 23.3516 43.0306 23.3391C43.2186 24.3669 44.8355 25.1941 45.6252 25.6955C46.8034 26.435 48.1195 27.0242 49.2602 27.8389C49.9746 28.3528 50.6515 29.1299 51.1403 29.882C51.4788 30.4084 52.3311 31.7246 52.1431 32.3638C52.1431 32.4516 52.1431 32.5393 52.1431 32.627C52.1431 32.6897 52.1556 32.7399 52.2308 32.7399C52.5567 32.7399 52.8701 32.7148 53.196 32.7524C53.5344 32.7774 53.8352 32.6396 54.1611 32.6521C55.2767 32.6271 55.9535 31.6619 56.2544 30.7344C56.3672 30.3834 56.8811 28.9795 56.7432 28.6035C56.7432 28.4155 56.7432 28.24 56.7432 28.052C57.0816 27.9768 57.0816 26.0966 56.7432 26.034C56.7432 25.8209 56.7432 25.6078 56.7432 25.3947C56.3045 24.5549 56.0663 23.5271 55.6402 22.6497C55.3393 22.0355 54.8631 21.1581 55.2266 20.5188C55.4146 20.6191 55.4772 20.9199 55.7655 20.8823C55.9034 21.0453 56.1165 21.0703 56.292 21.1581C56.3797 21.133 56.4925 21.2082 56.5552 21.1205C56.4675 20.9826 56.3672 20.8698 56.3797 20.7068C56.3546 20.7068 56.317 20.7068 56.292 20.7068C56.3546 20.1679 55.7781 19.4534 55.7404 18.8643C55.2767 18.225 56.5427 15.4048 57.3699 15.7432C57.5329 15.8059 57.0064 18.3378 57.7084 18.2877C57.8588 18.2751 58.2223 17.1471 58.31 17.0092C58.5732 16.583 59.1373 15.8309 59.6637 15.7056C60.2528 15.5803 60.1024 15.6179 60.0022 16.1694C59.9144 16.6081 59.4882 17.6484 59.7765 18.0621C59.6136 18.2626 59.952 18.6512 59.8893 18.8643C59.9645 19.0523 60.0523 19.2403 60.0774 19.4409C60.0774 19.4785 60.115 19.516 60.1651 19.5035C60.1776 19.4534 60.1651 19.3907 60.2528 19.4534C60.2779 19.4785 60.3155 19.491 60.3531 19.5035C60.5537 19.4784 60.3531 19.2278 60.5286 19.1902C60.4659 18.8141 61.3308 18.1122 61.5815 17.9367C61.8823 17.7362 62.7472 17.661 62.8349 17.5607C62.133 18.3128 62.0076 18.7891 62.0076 19.2278C62.0076 19.5286 62.0076 19.842 62.0076 20.1428C62.0076 20.8071 62.1455 21.4213 62.2207 22.0856C62.1706 22.1358 63.424 20.6943 63.3864 21.2458C63.2611 21.5968 62.9227 23.3516 63.4742 23.4519C63.4867 24.3293 63.7374 25.1064 63.5744 25.9838C63.424 26.7735 63.0229 27.1746 63.938 27.137C63.9881 27.0242 64.4143 26.9615 64.5145 26.8988C64.4143 27.0116 64.2764 27.0492 64.2638 27.162Z" fill="white"/>
<path d="M46.0889 21.8349C46.4148 21.8098 46.7282 21.6719 47.0541 21.7346C47.0791 21.6218 44.9984 21.5591 45.036 21.7346C45.387 21.7095 45.7254 21.8725 46.0889 21.8349Z" fill="white"/>
</svg>
